IMDB link :- http://www.imdb.com/title/tt0035417

File size                        : 745 MiB
Duration                         : 1h 52min

Video:-
Codec ID                         : XVID
Bit rate                         : 854 Kbps
Display aspect ratio             : 4/3
Frame Size                       : 512*392 pixels
Frame rate                       : 25 fps
Stream size                      : 686 MiB (92%)

Audio:-
Format                           : MPEG Layer 3
Nominal bit rate                 : 64.0 Kbps
Channel(s)                       : 1 channel
Sampling rate                    : 48.0 KHz
Stream size                      : 48.6 MiB (7%)

Subtitles                        : English SRT File